<?xml version="1.0" encoding="iso-8859-1"?>
<!-- Generator: Adobe Illustrator 19.0.0, SVG Export Plug-In . SVG Version: 6.00 Build 0)  -->
<svg version="1.1" id="Capa_1" xmlns="http://www.w3.org/2000/svg" xmlns:xlink="http://www.w3.org/1999/xlink" x="0px" y="0px"
	 viewBox="0 0 59.656 59.656" style="enable-background:new 0 0 59.656 59.656;" xml:space="preserve">
<g>
	<g>
		<path d="M57.949,23.531l-8.296-6.785C45.199,9.906,37.688,5.828,29.529,5.828c-8.512,0-16.439,4.558-20.735,11.907l-7.086,5.796
			c-1.819,1.487-1.805,2.855-1.635,3.539c0.17,0.683,0.8,1.896,3.105,2.356l2.352,0.47c0.037,13.202,10.789,23.932,24,23.932
			c13.17,0,23.898-10.665,23.999-23.813l2.951-0.589c2.305-0.46,2.934-1.674,3.104-2.356C59.754,26.387,59.768,25.019,57.949,23.531
			z M57.643,26.586c-0.069,0.276-0.517,0.673-1.555,0.88l-3.764,0.751c-0.478,0.095-0.817,0.521-0.804,1.009
			c0.005,0.2,0.008,0.401,0.008,0.603c0,12.131-9.869,22-22,22s-22-9.869-22-22c0-0.24,0.004-0.48,0.011-0.719
			c0.015-0.488-0.325-0.916-0.804-1.012l-3.168-0.632c-1.038-0.207-1.486-0.604-1.555-0.88c-0.069-0.276,0.141-0.837,0.96-1.506
			l7.227-5.911c0.094-0.077,0.173-0.171,0.234-0.276c3.918-6.825,11.234-11.064,19.094-11.064c7.529,0,14.455,3.788,18.528,10.133
			c0.057,0.089,0.127,0.168,0.208,0.234l8.418,6.885C57.502,25.749,57.712,26.31,57.643,26.586z"/>
		<circle cx="20.539" cy="25.839" r="2"/>
		<circle cx="38.539" cy="25.839" r="2"/>
		<path d="M38.539,37.839c0,2.206-1.794,4-4,4s-4-1.794-4-4v-0.081c2.279-0.372,4-1.987,4-3.919c0-2.206-2.243-4-5-4s-5,1.794-5,4
			c0,1.932,1.721,3.547,4,3.919v0.081c0,2.206-1.794,4-4,4s-4-1.794-4-4v-1h-2v1c0,3.309,2.691,6,6,6c2.086,0,3.924-1.071,5-2.69
			c1.076,1.62,2.914,2.69,5,2.69c3.309,0,6-2.691,6-6v-1h-2V37.839z M26.539,33.839c0-1.084,1.374-2,3-2s3,0.916,3,2s-1.374,2-3,2
			S26.539,34.923,26.539,33.839z"/>
	</g>
</g>
<g>
</g>
<g>
</g>
<g>
</g>
<g>
</g>
<g>
</g>
<g>
</g>
<g>
</g>
<g>
</g>
<g>
</g>
<g>
</g>
<g>
</g>
<g>
</g>
<g>
</g>
<g>
</g>
<g>
</g>
</svg>
